<svg width="16" height="16" viewBox="0 0 16 16" fill="none" xmlns="http://www.w3.org/2000/svg">
<g clip-path="url(#clip0_1069825_28)">
<path d="M15.9961 16L16.0001 15.9994V10.1314C16.0001 7.2607 15.3821 5.04937 12.0261 5.04937C10.4127 5.04937 9.33006 5.9347 8.88806 6.77404H8.8414V5.31737H5.6594V15.9994H8.97273V10.71C8.97273 9.31737 9.23673 7.9707 10.9614 7.9707C12.6607 7.9707 12.6861 9.56004 12.6861 10.7994V16H15.9961Z" fill="#F4F4FD"/>
<path d="M0.264062 5.31797H3.5814V16H0.264062V5.31797Z" fill="#F4F4FD"/>
<path d="M1.92139 0C0.860728 0 6.10352e-05 0.860667 6.10352e-05 1.92133C6.10352e-05 2.982 0.860728 3.86067 1.92139 3.86067C2.98206 3.86067 3.84273 2.982 3.84273 1.92133C3.84206 0.860667 2.98139 0 1.92139 0Z" fill="#F4F4FD"/>
</g>
<defs>
<clipPath id="clip0_1069825_28">
<rect width="16" height="16" fill="white"/>
</clipPath>
</defs>
</svg>
